<svg width="20" height="20" viewBox="0 0 20 20" fill="none" xmlns="http://www.w3.org/2000/svg">
<path d="M16.7675 14.9141C16.3991 14.0414 15.8644 13.2486 15.1933 12.5801C14.5242 11.9096 13.7316 11.375 12.8593 11.0059C12.8515 11.002 12.8437 11 12.8359 10.9961C14.0527 10.1172 14.8437 8.68555 14.8437 7.07031C14.8437 4.39453 12.6757 2.22656 9.99994 2.22656C7.32416 2.22656 5.15619 4.39453 5.15619 7.07031C5.15619 8.68555 5.94721 10.1172 7.164 10.998C7.15619 11.002 7.14838 11.0039 7.14057 11.0078C6.26557 11.377 5.48041 11.9062 4.80658 12.582C4.13609 13.2511 3.60151 14.0437 3.23236 14.916C2.86971 15.77 2.67413 16.6856 2.65619 17.6133C2.65567 17.6341 2.65933 17.6549 2.66695 17.6743C2.67456 17.6937 2.68599 17.7114 2.70055 17.7263C2.71511 17.7412 2.73252 17.7531 2.75173 17.7612C2.77095 17.7693 2.79159 17.7734 2.81244 17.7734H3.98432C4.07025 17.7734 4.13861 17.7051 4.14057 17.6211C4.17963 16.1133 4.7851 14.7012 5.85541 13.6309C6.96283 12.5234 8.43354 11.9141 9.99994 11.9141C11.5663 11.9141 13.0371 12.5234 14.1445 13.6309C15.2148 14.7012 15.8203 16.1133 15.8593 17.6211C15.8613 17.707 15.9296 17.7734 16.0156 17.7734H17.1874C17.2083 17.7734 17.2289 17.7693 17.2482 17.7612C17.2674 17.7531 17.2848 17.7412 17.2993 17.7263C17.3139 17.7114 17.3253 17.6937 17.3329 17.6743C17.3406 17.6549 17.3442 17.6341 17.3437 17.6133C17.3242 16.6797 17.1308 15.7715 16.7675 14.9141ZM9.99994 10.4297C9.10346 10.4297 8.25971 10.0801 7.62494 9.44531C6.99018 8.81055 6.64057 7.9668 6.64057 7.07031C6.64057 6.17383 6.99018 5.33008 7.62494 4.69531C8.25971 4.06055 9.10346 3.71094 9.99994 3.71094C10.8964 3.71094 11.7402 4.06055 12.3749 4.69531C13.0097 5.33008 13.3593 6.17383 13.3593 7.07031C13.3593 7.9668 13.0097 8.81055 12.3749 9.44531C11.7402 10.0801 10.8964 10.4297 9.99994 10.4297Z" fill="black"/>
</svg>
