<svg width="16" height="14" viewBox="0 0 16 14" fill="none" xmlns="http://www.w3.org/2000/svg">
<path d="M12.84 13.722C12.7684 13.8091 12.6783 13.8793 12.5762 13.9273C12.4742 13.9754 12.3628 14.0002 12.25 14C12.1519 14.0006 12.0547 13.9814 11.9641 13.9436C11.8736 13.9058 11.7916 13.8502 11.723 13.78L8.719 10.772C8.57855 10.6314 8.49966 10.4408 8.49966 10.242C8.49966 10.0433 8.57855 9.85264 8.719 9.71201C8.78849 9.64223 8.87109 9.58686 8.96204 9.54907C9.05299 9.51129 9.15051 9.49184 9.249 9.49184C9.34748 9.49184 9.445 9.51129 9.53595 9.54907C9.6269 9.58686 9.7095 9.64223 9.779 9.71201L11.5 11.444V0.750012C11.5 0.5511 11.579 0.360335 11.7197 0.219682C11.8603 0.07903 12.0511 1.24386e-05 12.25 1.24386e-05C12.4489 1.24386e-05 12.6397 0.07903 12.7803 0.219682C12.921 0.360335 13 0.5511 13 0.750012V11.434L14.722 9.71601C14.7915 9.64638 14.874 9.59113 14.9649 9.55344C15.0557 9.51575 15.1531 9.49634 15.2515 9.49634C15.3499 9.49634 15.4473 9.51575 15.5381 9.55344C15.629 9.59113 15.7115 9.64638 15.781 9.71601C15.9214 9.85664 16.0003 10.0473 16.0003 10.246C16.0003 10.4448 15.9214 10.6354 15.781 10.776L12.839 13.722H12.84ZM4.34 0.278013C4.26836 0.190898 4.17827 0.120773 4.07624 0.0726982C3.97421 0.0246233 3.86278 -0.000202406 3.75 1.24386e-05C3.65189 -0.000559889 3.55466 0.0186239 3.46412 0.0564204C3.37358 0.0942169 3.29158 0.149853 3.223 0.220012L0.219996 3.22801C0.0795458 3.36864 0.000656128 3.55926 0.000656128 3.75801C0.000656128 3.95676 0.0795458 4.14739 0.219996 4.28801C0.289494 4.3578 0.372089 4.41317 0.46304 4.45095C0.553992 4.48873 0.651509 4.50818 0.749996 4.50818C0.848483 4.50818 0.946001 4.48873 1.03695 4.45095C1.1279 4.41317 1.2105 4.3578 1.28 4.28801L3 2.55701V13.25C3 13.4489 3.07901 13.6397 3.21967 13.7803C3.36032 13.921 3.55108 14 3.75 14C3.94891 14 4.13967 13.921 4.28033 13.7803C4.42098 13.6397 4.5 13.4489 4.5 13.25V2.56601L6.222 4.28401C6.29148 4.35365 6.37401 4.40889 6.46487 4.44658C6.55573 4.48428 6.65313 4.50368 6.7515 4.50368C6.84986 4.50368 6.94727 4.48428 7.03813 4.44658C7.12898 4.40889 7.21152 4.35365 7.281 4.28401C7.42145 4.14339 7.50034 3.95276 7.50034 3.75401C7.50034 3.55526 7.42145 3.36464 7.281 3.22401L4.339 0.277012L4.34 0.278013Z" fill="black"/>
</svg>
