<svg width="22" height="19" viewBox="0 0 22 19" fill="none" xmlns="http://www.w3.org/2000/svg">
<path d="M7.92402 17.526L0.439015 10.041C0.159029 9.75987 0.00183105 9.37926 0.00183105 8.9825C0.00183105 8.58573 0.159029 8.20512 0.439015 7.924L7.92402 0.438997C8.21026 0.187151 8.58166 0.0537532 8.96272 0.0659197C9.34379 0.0780861 9.70592 0.234903 9.97552 0.504495C10.2451 0.774088 10.4019 1.13622 10.4141 1.51729C10.4263 1.89836 10.2929 2.26976 10.041 2.556L5.11102 7.486H19.462C19.6666 7.47304 19.8716 7.50214 20.0645 7.57151C20.2574 7.64088 20.434 7.74905 20.5834 7.88933C20.7329 8.02961 20.852 8.19902 20.9334 8.38713C21.0148 8.57523 21.0568 8.77803 21.0568 8.983C21.0568 9.18797 21.0148 9.39076 20.9334 9.57886C20.852 9.76697 20.7329 9.93639 20.5834 10.0767C20.434 10.2169 20.2574 10.3251 20.0645 10.3945C19.8716 10.4638 19.6666 10.493 19.462 10.48H5.11102L10.041 15.41C10.195 15.5454 10.3195 15.711 10.4069 15.8965C10.4944 16.0819 10.5429 16.2833 10.5494 16.4883C10.556 16.6932 10.5204 16.8973 10.445 17.088C10.3695 17.2787 10.2558 17.4518 10.1108 17.5968C9.96585 17.7418 9.79267 17.8555 9.60201 17.931C9.41135 18.0064 9.20725 18.0419 9.00231 18.0354C8.79737 18.0288 8.59595 17.9804 8.41049 17.8929C8.22502 17.8055 8.05946 17.6809 7.92402 17.527V17.526Z" fill="#2E3034"/>
</svg>
