<svg width="26" height="22" viewBox="0 0 26 22" fill="none" xmlns="http://www.w3.org/2000/svg">
<path d="M23.3125 3.26563H19.3281L18.3789 0.605469C18.3133 0.423442 18.1931 0.266099 18.0348 0.154934C17.8764 0.0437697 17.6876 -0.0157957 17.4941 -0.0156246H8.50586C8.11035 -0.0156246 7.75586 0.233399 7.62402 0.605469L6.67188 3.26563H2.6875C1.39258 3.26563 0.34375 4.31445 0.34375 5.60938V18.9688C0.34375 20.2637 1.39258 21.3125 2.6875 21.3125H23.3125C24.6074 21.3125 25.6562 20.2637 25.6562 18.9688V5.60938C25.6562 4.31445 24.6074 3.26563 23.3125 3.26563ZM23.5469 18.9688C23.5469 19.0977 23.4414 19.2031 23.3125 19.2031H2.6875C2.55859 19.2031 2.45312 19.0977 2.45312 18.9688V5.60938C2.45312 5.48047 2.55859 5.375 2.6875 5.375H8.15723L8.6582 3.97461L9.3291 2.09375H16.668L17.3389 3.97461L17.8398 5.375H23.3125C23.4414 5.375 23.5469 5.48047 23.5469 5.60938V18.9688ZM13 7.25C10.4102 7.25 8.3125 9.34766 8.3125 11.9375C8.3125 14.5273 10.4102 16.625 13 16.625C15.5898 16.625 17.6875 14.5273 17.6875 11.9375C17.6875 9.34766 15.5898 7.25 13 7.25ZM13 14.75C11.4473 14.75 10.1875 13.4902 10.1875 11.9375C10.1875 10.3848 11.4473 9.125 13 9.125C14.5527 9.125 15.8125 10.3848 15.8125 11.9375C15.8125 13.4902 14.5527 14.75 13 14.75Z" fill="#323F4B"/>
</svg>
