<svg width="15" height="16" viewBox="0 0 15 16" fill="none" xmlns="http://www.w3.org/2000/svg">
<path fill-rule="evenodd" clip-rule="evenodd" d="M0 7.94861C0 5.95948 0.790176 4.05183 2.1967 2.64531C3.60322 1.23878 5.51088 0.448608 7.5 0.448608C9.48912 0.448608 11.3968 1.23878 12.8033 2.64531C14.2098 4.05183 15 5.95948 15 7.94861C15 9.93773 14.2098 11.8454 12.8033 13.2519C11.3968 14.6584 9.48912 15.4486 7.5 15.4486C5.51088 15.4486 3.60322 14.6584 2.1967 13.2519C0.790176 11.8454 0 9.93773 0 7.94861H0ZM7.072 11.1586L11.39 5.76061L10.61 5.13661L6.928 9.73761L4.32 7.56461L3.68 8.33261L7.072 11.1596V11.1586Z" fill="black"/>
</svg>
