<svg width="15" height="15" viewBox="0 0 15 15" fill="none" xmlns="http://www.w3.org/2000/svg">
<path d="M14.1667 0H0.833333C0.61232 0 0.400358 0.0831771 0.244078 0.231233C0.0877973 0.379289 0 0.580097 0 0.78948V2.83423C0 3.24713 0.1775 3.65292 0.485833 3.94503L5 8.22164V14.2106C5.00016 14.3451 5.03656 14.4774 5.10575 14.5948C5.17494 14.7123 5.27462 14.8111 5.39537 14.8818C5.51612 14.9526 5.65393 14.993 5.79575 14.9992C5.93758 15.0054 6.07873 14.9772 6.20583 14.9172L9.53917 13.3383C9.82167 13.2041 10 12.9309 10 12.6317V8.22164L14.5142 3.94503C14.8225 3.65292 15 3.24713 15 2.83423V0.78948C15 0.580097 14.9122 0.379289 14.7559 0.231233C14.5996 0.0831771 14.3877 0 14.1667 0ZM8.5775 7.33664C8.49996 7.40983 8.43847 7.49682 8.39657 7.59261C8.35467 7.68841 8.33317 7.79111 8.33333 7.8948V12.1438L6.66667 12.9333V7.8948C6.66683 7.79111 6.64533 7.68841 6.60343 7.59261C6.56152 7.49682 6.50004 7.40983 6.4225 7.33664L1.66667 2.83423V1.57896H13.3342L13.3358 2.82871L8.5775 7.33664Z" fill="black"/>
</svg>
