<svg width="20" height="20" viewBox="0 0 20 20" fill="none" xmlns="http://www.w3.org/2000/svg">
<path d="M19.5853 9.83945L11.0611 0.818743L10.4898 0.213781C10.3596 0.0768506 10.1835 0 10 0C9.81654 0 9.64048 0.0768506 9.5103 0.213781L0.414826 9.83945C0.281429 9.98014 0.176004 10.1477 0.104772 10.3322C0.0335409 10.5168 -0.002053 10.7146 9.14394e-05 10.9139C0.00891557 11.7361 0.655283 12.3924 1.43181 12.3924H2.36937V20H17.6307V12.3924H18.5881C18.9654 12.3924 19.3205 12.2359 19.5875 11.9533C19.7189 11.8146 19.823 11.6496 19.8938 11.468C19.9647 11.2864 20.0007 11.0917 20 10.8952C20 10.4981 19.8522 10.1221 19.5853 9.83945ZM11.2354 18.3183H8.76466V13.5533H11.2354V18.3183ZM16.0424 10.7107V18.3183H12.6473V12.9927C12.6473 12.4765 12.2524 12.0584 11.7649 12.0584H8.23521C7.74768 12.0584 7.3528 12.4765 7.3528 12.9927V18.3183H3.95771V10.7107H1.83992L10.0022 2.07538L10.5118 2.61494L18.1624 10.7107H16.0424Z" fill="black"/>
</svg>
