<svg width="26" height="26" viewBox="0 0 26 26" fill="none" xmlns="http://www.w3.org/2000/svg">
<path d="M1.18182 22.75H21.6667C22.3182 22.75 22.8485 22.2032 22.8485 21.5312V1.21875C22.8485 0.546812 22.3182 0 21.6667 0H1.18182C0.530242 0 0 0.546812 0 1.21875V21.5312C0 22.2032 0.530242 22.75 1.18182 22.75ZM0.787879 1.21875C0.787879 1.11101 0.829383 1.00767 0.903261 0.931488C0.977139 0.855301 1.07734 0.8125 1.18182 0.8125H21.6667C21.7711 0.8125 21.8713 0.855301 21.9452 0.931488C22.0191 1.00767 22.0606 1.11101 22.0606 1.21875V21.5312C22.0606 21.639 22.0191 21.7423 21.9452 21.8185C21.8713 21.8947 21.7711 21.9375 21.6667 21.9375H1.18182C1.07734 21.9375 0.977139 21.8947 0.903261 21.8185C0.829383 21.7423 0.787879 21.639 0.787879 21.5312V1.21875Z" fill="black"/>
<path d="M14.1818 8.9375C15.0508 8.9375 15.7576 8.20869 15.7576 7.3125C15.7576 6.41631 15.0508 5.6875 14.1818 5.6875C13.3128 5.6875 12.606 6.41631 12.606 7.3125C12.606 8.20869 13.3128 8.9375 14.1818 8.9375ZM14.1818 6.5C14.3379 6.49984 14.4904 6.54742 14.6203 6.63673C14.7501 6.72604 14.8513 6.85305 14.9111 7.0017C14.9709 7.15034 14.9866 7.31394 14.9561 7.47178C14.9257 7.62963 14.8506 7.77462 14.7403 7.88841C14.6299 8.0022 14.4893 8.07968 14.3363 8.11104C14.1832 8.14239 14.0246 8.12622 13.8804 8.06456C13.7363 8.0029 13.6131 7.89853 13.5265 7.76466C13.4399 7.63078 13.3938 7.47343 13.3939 7.3125C13.3939 6.86481 13.7469 6.5 14.1818 6.5Z" fill="black"/>
<path d="M2.75759 18.6875H20.0909C20.1954 18.6875 20.2956 18.6447 20.3695 18.5685C20.4434 18.4923 20.4849 18.389 20.4849 18.2812V2.84375C20.4849 2.73601 20.4434 2.63267 20.3695 2.55649C20.2956 2.4803 20.1954 2.4375 20.0909 2.4375H2.75759C2.65311 2.4375 2.55291 2.4803 2.47903 2.55649C2.40515 2.63267 2.36365 2.73601 2.36365 2.84375V18.2812C2.36365 18.389 2.40515 18.4923 2.47903 18.5685C2.55291 18.6447 2.65311 18.6875 2.75759 18.6875ZM3.15153 17.875V14.1066C3.16886 14.0936 3.18856 14.0863 3.20431 14.0701L7.2351 9.91331C7.33828 9.81179 7.4754 9.75515 7.61801 9.75515C7.76062 9.75515 7.89775 9.81179 8.00092 9.91331L13.9266 16.0241C13.9991 16.0996 14.0976 16.1426 14.2006 16.1438C14.3037 16.145 14.4031 16.1043 14.4773 16.0306L17.5232 13.0471C17.5734 12.995 17.633 12.9537 17.6988 12.9256C17.7645 12.8974 17.835 12.8829 17.9061 12.883C18.0511 12.883 18.1858 12.9415 18.2717 13.0276L19.697 14.7006V17.875H3.15153ZM19.697 3.25V13.4721L18.8453 12.4743C18.7225 12.3465 18.5764 12.2451 18.4153 12.176C18.2542 12.107 18.0814 12.0717 17.9069 12.0721H17.9061C17.733 12.0713 17.5614 12.1058 17.4011 12.1736C17.2409 12.2414 17.0953 12.3411 16.9725 12.467L14.2118 15.171L8.55795 9.33969C8.0545 8.82131 7.17995 8.82212 6.67807 9.33969L3.15153 12.9764V3.25H19.697Z" fill="black"/>
<path d="M3.54546 23.6299C3.44098 23.6299 3.34078 23.6727 3.2669 23.7489C3.19302 23.8251 3.15152 23.9284 3.15152 24.0362V24.7812C3.15152 25.4532 3.68176 26 4.33334 26H24.8182C25.4698 26 26 25.4532 26 24.7812V3.65625C26 2.98431 25.4698 2.4375 24.8182 2.4375H24.0957C23.9912 2.4375 23.891 2.4803 23.8171 2.55649C23.7433 2.63267 23.7018 2.73601 23.7018 2.84375C23.7018 2.95149 23.7433 3.05483 23.8171 3.13101C23.891 3.2072 23.9912 3.25 24.0957 3.25H24.8182C24.9227 3.25 25.0229 3.2928 25.0967 3.36899C25.1706 3.44517 25.2121 3.54851 25.2121 3.65625V24.7812C25.2121 24.889 25.1706 24.9923 25.0967 25.0685C25.0229 25.1447 24.9227 25.1875 24.8182 25.1875H4.33334C4.22886 25.1875 4.12866 25.1447 4.05478 25.0685C3.9809 24.9923 3.9394 24.889 3.9394 24.7812V24.0362C3.9394 23.9284 3.89789 23.8251 3.82402 23.7489C3.75014 23.6727 3.64994 23.6299 3.54546 23.6299Z" fill="black"/>
</svg>
