<svg width="20" height="20" viewBox="0 0 20 20" fill="none" xmlns="http://www.w3.org/2000/svg">
<path d="M10.35 17.8417L17.85 10.3417C18.15 10.0417 18.3333 9.62501 18.3333 9.16667L18.3333 3.33334C18.3333 2.41667 17.5833 1.66667 16.6667 1.66667L10.8333 1.66667C10.375 1.66667 9.95833 1.85001 9.65 2.15834L2.15 9.65834C1.85 9.95834 1.66666 10.375 1.66666 10.8333C1.66666 11.2917 1.85 11.7083 2.15833 12.0083L7.99166 17.8417C8.29167 18.15 8.70833 18.3333 9.16667 18.3333C9.625 18.3333 10.05 18.1417 10.35 17.8417ZM3.325 10.8333L10.8333 3.33334L16.6667 3.33334L16.6667 9.16667H16.675L9.175 16.6667L3.325 10.8333Z" fill="black"/>
<path d="M13.3333 5.41667C13.3333 6.10703 13.893 6.66667 14.5833 6.66667C15.2737 6.66667 15.8333 6.10703 15.8333 5.41667C15.8333 4.72632 15.2737 4.16667 14.5833 4.16667C13.893 4.16667 13.3333 4.72632 13.3333 5.41667Z" fill="black"/>
</svg>
