<svg width="16" height="16" viewBox="0 0 16 16" fill="none" xmlns="http://www.w3.org/2000/svg">
<path d="M11.7333 9.6C10.6667 10.6667 10.6667 11.7333 9.6 11.7333C8.53333 11.7333 7.46667 10.6667 6.4 9.6C5.33333 8.53333 4.26667 7.46667 4.26667 6.4C4.26667 5.33333 5.33333 5.33333 6.4 4.26667C7.46667 3.2 4.26667 0 3.2 0C2.13333 0 0 3.2 0 3.2C0 5.33333 2.19147 9.65813 4.26667 11.7333C6.34187 13.8085 10.6667 16 12.8 16C12.8 16 16 13.8667 16 12.8C16 11.7333 12.8 8.53333 11.7333 9.6Z" fill="white"/>
</svg>
