<svg width="13" height="12" viewBox="0 0 13 12" fill="none" xmlns="http://www.w3.org/2000/svg">
<path d="M11.6852 4.29366L8.21387 3.78916L6.66211 0.643267C6.61972 0.557134 6.55 0.487407 6.46387 0.445025C6.24785 0.338384 5.98535 0.427251 5.87734 0.643267L4.32558 3.78916L0.854295 4.29366C0.758592 4.30733 0.671092 4.35245 0.6041 4.4208C0.52311 4.50405 0.478481 4.61604 0.480019 4.73217C0.481557 4.8483 0.529137 4.95907 0.612303 5.04014L3.12383 7.48877L2.53047 10.9464C2.51655 11.0268 2.52545 11.1095 2.55616 11.1852C2.58687 11.2608 2.63815 11.3263 2.70419 11.3743C2.77024 11.4223 2.8484 11.4508 2.92982 11.4566C3.01124 11.4624 3.09266 11.4452 3.16484 11.4071L6.26972 9.77471L9.37461 11.4071C9.45937 11.4522 9.55781 11.4673 9.65215 11.4509C9.89004 11.4099 10.05 11.1843 10.009 10.9464L9.41562 7.48877L11.9271 5.04014C11.9955 4.97315 12.0406 4.88565 12.0543 4.78995C12.0912 4.55069 11.9244 4.3292 11.6852 4.29366Z" fill="black"/>
</svg>
